<svg width="237" height="239" viewBox="0 0 237 239" fill="none" xmlns="http://www.w3.org/2000/svg">
<g clip-path="url(#clip0)">
<path d="M86.8904 179.908L154.886 67.4144C156.967 63.9718 157.415 59.7353 156.133 55.6366C154.851 51.538 151.942 47.913 148.048 45.5592C144.154 43.2054 139.593 42.3155 135.368 43.0853C131.143 43.8551 127.6 46.2216 125.519 49.6641L57.5238 162.158C55.443 165.6 54.9945 169.837 56.2768 173.936C57.5591 178.034 60.4673 181.659 64.3615 184.013C68.2558 186.367 72.8171 187.257 77.0421 186.487C81.2671 185.717 84.8096 183.351 86.8904 179.908ZM45.1198 160.568L118.346 39.4207C119.039 38.2732 119.189 36.861 118.761 35.4948C118.334 34.1285 117.364 32.9202 116.066 32.1356L111.172 29.1772C105.98 26.0388 99.8977 24.8523 94.2644 25.8787C88.6311 26.9052 83.9077 30.0604 81.1333 34.6505L23.5988 129.838C20.8244 134.428 20.2263 140.076 21.936 145.541C23.6458 151.006 27.5233 155.839 32.7157 158.978L37.6101 161.936C38.9082 162.721 40.4286 163.017 41.837 162.761C43.2453 162.504 44.4262 161.715 45.1198 160.568ZM162.936 76.2084L98.4184 182.948C92.7679 192.296 102.92 205.835 115.939 206.394C142.366 207.532 172.454 193.062 189.41 165.079C206.303 137.061 205.13 103.691 191.842 80.8244C185.299 69.5516 168.586 66.86 162.936 76.2084ZM144.016 184.9C143.499 185.756 142.706 186.419 141.739 186.805C140.771 187.192 139.671 187.284 138.579 187.071C137.487 186.858 136.451 186.349 135.602 185.608C134.754 184.867 134.131 183.928 133.812 182.909C133.493 181.89 133.493 180.838 133.811 179.884C134.13 178.931 134.753 178.119 135.601 177.553C136.449 176.986 137.485 176.69 138.577 176.701C139.669 176.712 140.769 177.03 141.737 177.615C143.035 178.4 144.005 179.608 144.432 180.974C144.859 182.34 144.71 183.753 144.016 184.9ZM174.727 156.203C174.21 157.059 173.417 157.722 172.449 158.109C171.481 158.495 170.382 158.588 169.289 158.374C168.197 158.161 167.161 157.652 166.313 156.911C165.464 156.171 164.841 155.231 164.522 154.213C164.204 153.194 164.203 152.141 164.522 151.188C164.84 150.234 165.463 149.423 166.311 148.856C167.16 148.289 168.195 147.993 169.288 148.004C170.38 148.015 171.48 148.333 172.448 148.918C173.746 149.703 174.715 150.911 175.143 152.277C175.57 153.644 175.42 155.056 174.727 156.203ZM185.86 115.673C185.342 116.529 184.55 117.192 183.582 117.578C182.614 117.965 181.514 118.057 180.422 117.844C179.33 117.631 178.294 117.122 177.445 116.381C176.597 115.64 175.974 114.701 175.655 113.682C175.336 112.663 175.336 111.611 175.655 110.657C175.973 109.704 176.596 108.893 177.444 108.326C178.292 107.759 179.328 107.463 180.42 107.474C181.513 107.485 182.612 107.803 183.58 108.388C184.879 109.173 185.848 110.381 186.275 111.747C186.703 113.113 186.553 114.526 185.86 115.673Z" fill="black" fill-opacity="0.1"/>
</g>
<defs>
<clipPath id="clip0">
<rect x="236.176" y="87.7072" width="176.055" height="169.553" transform="rotate(121.15 236.176 87.7072)" fill="white"/>
</clipPath>
</defs>
</svg>
