<svg width="175" height="234" viewBox="0 0 175 234" fill="none" xmlns="http://www.w3.org/2000/svg">
<g clip-path="url(#clip0)">
<path d="M175.397 79.7918L60.1198 142.953C56.592 144.886 54.0774 148.325 53.129 152.513C52.1806 156.702 52.8761 161.297 55.0626 165.287C57.2491 169.278 60.7474 172.337 64.7879 173.792C68.8285 175.247 73.0803 174.979 76.608 173.046L191.886 109.885C195.413 107.952 197.928 104.513 198.876 100.325C199.825 96.1363 199.129 91.5413 196.943 87.5507C194.756 83.56 191.258 80.5007 187.217 79.0456C183.177 77.5906 178.925 77.859 175.397 79.7918ZM201.815 117.487L77.6703 185.507C76.4944 186.151 75.6562 187.297 75.3401 188.693C75.0239 190.089 75.2558 191.621 75.9846 192.951L78.7327 197.967C81.648 203.288 86.3124 207.367 91.6997 209.307C97.0871 211.247 102.756 210.889 107.46 208.312L205.002 154.868C209.706 152.291 213.059 147.706 214.323 142.121C215.588 136.536 214.66 130.41 211.745 125.089L208.997 120.073C208.268 118.743 207.102 117.723 205.755 117.238C204.409 116.753 202.991 116.843 201.815 117.487ZM57.5721 131.306L166.953 71.3762C176.532 66.1274 174.549 49.3218 163.569 42.3032C141.285 28.0532 107.998 25.464 79.286 41.1546C50.6112 56.9064 34.8747 86.3556 34.8889 112.804C34.8892 125.838 47.9924 136.555 57.5721 131.306ZM128.496 46.7982C129.373 46.3178 130.391 46.1422 131.423 46.2939C132.454 46.4455 133.451 46.9174 134.289 47.65C135.127 48.3827 135.767 49.343 136.129 50.4097C136.491 51.4763 136.558 52.6014 136.323 53.6425C136.087 54.6837 135.558 55.5943 134.804 56.259C134.05 56.9238 133.105 57.3129 132.086 57.3772C131.068 57.4415 130.024 57.178 129.084 56.6201C128.145 56.0623 127.354 55.235 126.81 54.243C126.082 52.9128 125.85 51.3812 126.166 49.985C126.482 48.5888 127.32 47.4425 128.496 46.7982ZM87.5301 56.2013C88.407 55.7208 89.4254 55.5453 90.4565 55.6969C91.4876 55.8485 92.485 56.3205 93.3227 57.0531C94.1605 57.7857 94.8008 58.7461 95.1628 59.8127C95.5248 60.8794 95.5922 62.0044 95.3564 63.0456C95.1207 64.0868 94.5924 64.9973 93.8383 65.6621C93.0843 66.3268 92.1384 66.716 91.1202 66.7802C90.1021 66.8445 89.0574 66.5811 88.1183 66.0232C87.1792 65.4653 86.3879 64.6381 85.8444 63.6461C85.1155 62.3159 84.8837 60.7842 85.1998 59.3881C85.516 57.9919 86.3542 56.8456 87.5301 56.2013ZM57.5562 85.6665C58.4331 85.1861 59.4515 85.0106 60.4825 85.1622C61.5136 85.3138 62.5111 85.7858 63.3488 86.5184C64.1865 87.251 64.8269 88.2113 65.1889 89.278C65.5509 90.3446 65.6182 91.4697 65.3825 92.5109C65.1467 93.552 64.6184 94.4626 63.8644 95.1273C63.1104 95.7921 62.1645 96.1812 61.1463 96.2455C60.1282 96.3098 59.0835 96.0463 58.1444 95.4884C57.2053 94.9306 56.414 94.1033 55.8704 93.1114C55.1416 91.7812 54.9098 90.2495 55.2259 88.8533C55.542 87.4571 56.3802 86.3108 57.5562 85.6665Z" fill="black" fill-opacity="0.1"/>
</g>
<defs>
<clipPath id="clip0">
<rect y="84.5957" width="176.055" height="169.553" transform="rotate(-28.7185 0 84.5957)" fill="white"/>
</clipPath>
</defs>
</svg>
