<svg width="215" height="224" viewBox="0 0 215 224" fill="none" xmlns="http://www.w3.org/2000/svg">
<g clip-path="url(#clip0)">
<path d="M173.175 142.415L115.139 208.79C113.654 210.667 111.599 211.762 108.975 212.076C106.35 212.39 103.956 211.881 101.79 210.55L22.6205 161.89C20.4548 160.559 18.9194 158.652 18.0142 156.169C17.109 153.686 17.1184 151.333 18.0423 149.111L50.2103 66.8362C51.3504 64.0823 53.0041 61.9762 55.1713 60.5179C57.3385 59.0597 59.6409 58.4153 62.0786 58.5848C65.4513 64.2454 71.743 71.1353 80.9536 79.2546C90.1643 87.3739 100.866 95.1805 113.058 102.674C125.17 110.119 136.873 116.116 148.167 120.666C159.461 125.216 168.424 127.669 175.057 128.025C176.309 130.124 176.774 132.469 176.452 135.061C176.13 137.653 175.037 140.105 173.175 142.415ZM182.737 75.3446L200.983 80.1813L177.51 118.371C172.512 117.692 166.46 116.031 159.353 113.39L182.737 75.3446ZM168.203 47.4772L177.793 66.1273L150.763 110.104C145.455 107.771 140.036 105.171 134.505 102.303L168.203 47.4772ZM111.137 88.5385L142.256 37.9076L160.502 42.7443L126.538 98.0043C123.43 96.2273 120.814 94.6855 118.688 93.379C116.563 92.0726 114.045 90.459 111.137 88.5385ZM119.155 23.7089L137.401 28.5456L103.703 83.3716C98.5069 79.7791 93.6994 76.0934 89.2806 72.3145L119.155 23.7089ZM87.6075 23.2528L108.699 23.4604L82.4694 66.135C76.9032 60.9865 72.6588 56.3846 69.7361 52.3294L87.6075 23.2528Z" fill="black" fill-opacity="0.1"/>
</g>
<defs>
<clipPath id="clip0">
<rect x="90.9578" width="144.909" height="173.705" transform="rotate(31.5763 90.9578 0)" fill="white"/>
</clipPath>
</defs>
</svg>
