<svg width="141" height="204" viewBox="0 0 141 204" fill="none" xmlns="http://www.w3.org/2000/svg">
<g clip-path="url(#clip0)">
<path d="M117.373 75.9704L124.399 163.859C124.707 166.233 124.057 168.47 122.45 170.568C120.843 172.666 118.808 174.026 116.343 174.648L26.2383 197.381C23.7734 198.003 21.336 197.771 18.9261 196.686C16.5161 195.602 14.8378 193.953 13.8911 191.74L-22.5763 111.279C-23.7528 108.54 -24.1069 105.886 -23.6385 103.316C-23.1702 100.746 -22.0247 98.6479 -20.2019 97.0206C-13.7942 98.5561 -4.46869 98.8593 7.77453 97.9302C20.0178 97.0011 33.0775 94.7861 46.9537 91.2852C60.7387 87.8073 73.2018 83.6122 84.3429 78.6999C95.4841 73.7876 103.497 69.0808 108.382 64.5795C110.758 65.1473 112.762 66.4513 114.394 68.4914C116.025 70.5315 117.018 73.0245 117.373 75.9704ZM76.0152 22.3108L92.2139 12.6201L103.18 56.0851C99.2051 59.1894 93.7917 62.3648 86.9397 65.6112L76.0152 22.3108ZM45.9141 13.2687L65.9636 19.418L78.5911 69.4687C73.2162 71.642 67.5715 73.7082 61.6571 75.6674L45.9141 13.2687ZM35.4898 82.7947L20.9515 25.1705L37.1502 15.4798L53.0177 78.3724C49.5764 79.3574 46.6461 80.1551 44.2268 80.7655C41.8076 81.3758 38.8953 82.0522 35.4898 82.7947ZM-5.34036 31.8038L10.8583 22.1131L26.6013 84.5118C20.4017 85.7257 14.4067 86.5961 8.61643 87.123L-5.34036 31.8038ZM-27.6861 54.078L-12.8166 39.1188L-0.562903 87.6877C-8.1349 88.0804 -14.3929 87.9081 -19.3369 87.1707L-27.6861 54.078Z" fill="black" fill-opacity="0.09"/>
</g>
<defs>
<clipPath id="clip0">
<rect x="-42" y="35.4491" width="144.909" height="173.705" transform="rotate(-14.16 -42 35.4491)" fill="white"/>
</clipPath>
</defs>
</svg>
