<svg width="301" height="300" viewBox="0 0 301 300" fill="none" xmlns="http://www.w3.org/2000/svg">
<g clip-path="url(#clip0)">
<path d="M86.6822 77.7277C34.33 128.106 49.1695 161.507 67.6018 182.847L67.6039 182.849C72.2646 188.238 77.1454 192.856 81.2388 196.783C78.7734 198.977 76.0135 201.188 72.7205 203.349C72.6726 203.378 72.6508 203.427 72.616 203.465C72.5909 203.478 72.5617 203.487 72.5409 203.505C71.6218 204.299 72.2685 206.558 73.994 208.555C75.7153 210.547 77.8564 211.515 78.7754 210.721C82.2263 208.694 85.8026 206.904 89.477 205.366C113.982 233.361 150.807 266.31 210.41 224.702C253.664 194.502 258.367 127.234 223.192 86.5205C188.016 45.8069 124.735 41.1125 86.6822 77.7277ZM87.6276 188.616C86.6753 187.703 85.6889 186.756 84.6826 185.775C86.3319 186.574 87.9705 187.318 89.5488 187.987C89.2109 188.427 88.7718 188.909 88.4016 189.364L87.6276 188.616ZM99.9165 201.587C100.902 201.291 101.853 201.013 102.739 200.769C102.663 202.086 102.672 203.401 102.765 204.705C101.807 203.675 100.862 202.633 99.9165 201.587ZM149.651 62.8413C174.931 63.0866 198.888 74.179 215.381 93.2687C232.189 112.723 239.657 140.018 235.361 166.286C231.877 187.573 221.099 205.481 205.009 216.714C174.807 237.797 151.676 237.791 132.713 228.52C117.583 216.735 111.214 198.848 111.214 198.848C111.214 198.848 129.418 236.285 181.643 212.011C143.568 218.67 128.619 186.437 113.493 187.629C131.377 172.178 112.22 167.546 114.98 154.456C118.523 137.622 134.587 118.701 130.404 106.471C117.567 133.168 105.728 117.844 95.899 162.239C93.7522 145.181 81.6059 145.869 75.3262 125.47C64.0977 157.266 87.9912 171.969 87.9912 171.969C87.9912 171.969 72.8326 170.681 65.5121 161.755C56.4578 143.813 57.1554 119.511 93.4175 84.6129C108.23 70.3642 128.2 62.6324 149.651 62.8413Z" fill="black" fill-opacity="0.1"/>
</g>
<defs>
<clipPath id="clip0">
<rect x="134.347" y="299.461" width="205.496" height="220.205" transform="rotate(-130.826 134.347 299.461)" fill="white"/>
</clipPath>
</defs>
</svg>
