<svg width="276" height="284" viewBox="0 0 276 284" fill="none" xmlns="http://www.w3.org/2000/svg">
<g clip-path="url(#clip0)">
<path d="M225.822 102.555C193.461 37.5051 157.147 41.6458 131.262 52.8309L131.259 52.8322C124.72 55.6624 118.852 58.9339 113.878 61.6612C112.524 58.6515 111.243 55.3558 110.168 51.566C110.155 51.5117 110.115 51.4764 110.089 51.4315C110.084 51.4037 110.085 51.3734 110.074 51.3481C109.592 50.2332 107.243 50.1727 104.82 51.22C102.404 52.2647 100.838 54.017 101.32 55.1319C102.219 59.0318 102.854 62.9801 103.22 66.9467C69.1648 81.9296 26.6893 107.18 48.5102 176.516C64.3498 226.836 127.111 251.494 176.499 230.146C225.888 208.797 249.342 149.836 225.822 102.555ZM119.754 70.2052C120.91 69.5705 122.109 68.9134 123.346 68.2474C122.09 69.5814 120.889 70.9215 119.777 72.2266C119.459 71.7722 119.131 71.209 118.808 70.7192L119.754 70.2052ZM103.695 78.0391C103.681 79.0682 103.662 80.0587 103.628 80.9766C102.394 80.5093 101.138 80.1236 99.8652 79.8218C101.136 79.2164 102.413 78.6268 103.695 78.0391ZM221.141 167.09C213.327 191.133 195.561 210.661 172.404 220.671C148.805 230.872 120.527 229.811 96.7549 217.836C77.493 208.129 63.6405 192.477 57.7496 173.759C46.6938 138.625 53.6352 116.56 68.1659 101.25C83.9459 90.3502 102.919 89.6382 102.919 89.6382C102.919 89.6382 61.7465 95.7779 69.2433 152.879C74.3074 114.559 109.54 109.964 112.939 95.1766C122.316 116.871 132.479 99.9844 144.139 106.542C159.137 114.97 172.369 135.969 185.291 135.646C163.671 115.394 181.841 108.694 142.437 86.0056C159.353 89.0726 162.339 77.2789 183.682 77.4053C156.717 57.1589 135.525 75.5439 135.525 75.5439C135.525 75.5439 141.299 61.4691 152.01 57.162C171.841 53.9047 194.815 61.8575 217.234 106.916C226.385 125.319 227.773 146.689 221.141 167.09Z" fill="black" fill-opacity="0.1"/>
</g>
<defs>
<clipPath id="clip0">
<rect y="81.5361" width="205.496" height="220.205" transform="rotate(-23.3769 0 81.5361)" fill="white"/>
</clipPath>
</defs>
</svg>
